<svg xmlns="http://www.w3.org/2000/svg" width="58.707" height="60" viewBox="0 0 58.707 60">
  <g id="icon_construcion_management" transform="translate(0)">
    <path id="Path_22" data-name="Path 22" d="M-293.983,72.139l-2.838,2.837v0l-1.357,1.357,6.739,6.739V85.75h-1.218V83.573L-299.9,76.33l3.079-3.079V59.321h-6.751V82.906l10.078,9.585v5.284h13.4V85.446Z" transform="translate(303.572 -44.424)" fill="#0f145b"/>
    <path id="Path_23" data-name="Path 23" d="M-173.963,72.139l2.837,2.837v0l1.357,1.357-6.739,6.739V85.75h1.218V83.573l7.243-7.243-3.079-3.079V59.321h6.751V82.906l-10.078,9.585v5.284h-13.4V85.446Z" transform="translate(223.081 -44.424)" fill="#0f145b"/>
    <rect id="Rectangle_26" data-name="Rectangle 26" width="20.156" height="8.415" transform="translate(6.458 51.585)" fill="#f04e36"/>
    <g id="Group_15" data-name="Group 15" transform="translate(13.429 0)">
      <path id="Path_24" data-name="Path 24" d="M-227.186,24.193a4.009,4.009,0,0,1-4.761-2.267,4.011,4.011,0,0,1,1.686-5.07,16.151,16.151,0,0,0-3.331-3.3,4.009,4.009,0,0,1-4.972,1.766,4.011,4.011,0,0,1-2.394-4.776,16.115,16.115,0,0,0-4.689.022,4.009,4.009,0,0,1-2.267,4.761,4.011,4.011,0,0,1-5.071-1.686,16.13,16.13,0,0,0-3.3,3.331,4.009,4.009,0,0,1,1.766,4.972,4.01,4.01,0,0,1-4.776,2.394,16.126,16.126,0,0,0,.022,4.689,4.01,4.01,0,0,1,4.761,2.267,4.011,4.011,0,0,1-1.686,5.07,16.134,16.134,0,0,0,3.331,3.3A4.009,4.009,0,0,1-247.9,37.9a4.011,4.011,0,0,1,2.393,4.776,16.118,16.118,0,0,0,4.689-.022,4.01,4.01,0,0,1,2.267-4.761,4.011,4.011,0,0,1,5.07,1.686,16.122,16.122,0,0,0,3.3-3.331,4.01,4.01,0,0,1-1.767-4.972,4.011,4.011,0,0,1,4.776-2.394A16.126,16.126,0,0,0-227.186,24.193Zm-15.953-.752a3.173,3.173,0,0,1,3.169,3.169,3.172,3.172,0,0,1-3.169,3.169,3.172,3.172,0,0,1-3.169-3.169A3.172,3.172,0,0,1-243.14,23.441Zm0,10.8a7.639,7.639,0,0,1-7.631-7.63h1.522a6.115,6.115,0,0,0,6.109,6.108,6.115,6.115,0,0,0,6.108-6.108A6.115,6.115,0,0,0-243.14,20.5V18.979a7.639,7.639,0,0,1,7.631,7.631A7.639,7.639,0,0,1-243.14,34.24Z" transform="translate(259.456 -10.384)" fill="#f04e36"/>
      <path id="Path_25" data-name="Path 25" d="M-209.62,61.571a1.649,1.649,0,0,0,1.647-1.646,1.649,1.649,0,0,0-1.647-1.647,1.649,1.649,0,0,0-1.647,1.647A1.649,1.649,0,0,0-209.62,61.571Z" transform="translate(225.936 -43.698)" fill="#939598"/>
    </g>
    <rect id="Rectangle_27" data-name="Rectangle 27" width="20.156" height="8.415" transform="translate(52.249 60) rotate(-180)" fill="#f04e36"/>
  </g>
</svg>
