<svg xmlns="http://www.w3.org/2000/svg" width="60" height="60" viewBox="0 0 60 60">
  <g id="icon_operation_and_maintenance" transform="translate(-338 -21.071)">
    <path id="Path_46" data-name="Path 46" d="M397.154,29.06,389.542,36.7l-6.6-1.07-.479-6.008,7.639-7.665a12.512,12.512,0,0,0-16.261,16.208l-18.7,18.769a12.513,12.513,0,1,0,7.045,7.112l18.743-18.808A12.513,12.513,0,0,0,397.154,29.06Zm-46.7,45.316a5.819,5.819,0,1,1,4-10.033l.211.211a5.813,5.813,0,0,1-4.215,9.822Z" fill="#0f145b"/>
    <path id="Path_47" data-name="Path 47" d="M395.888,70.2l-14.6-14.6-3.628,3.628L351.352,32.924l1.9-1.9-9.438-7.373L339.068,28.4l7.373,9.438,1.9-1.9L374.652,62.24l-3.628,3.628,14.6,14.6a7.258,7.258,0,0,0,10.264,0h0A7.257,7.257,0,0,0,395.888,70.2Z" transform="translate(-0.756 -1.825)" fill="#f04e36"/>
  </g>
</svg>
