<svg xmlns="http://www.w3.org/2000/svg" width="55.193" height="60" viewBox="0 0 55.193 60">
  <g id="icon_project_financing" transform="translate(-30.099 -32.857)">
    <path id="Path_22" data-name="Path 22" d="M69.214,156.819l-10.87,7.146,7.767,11.815,4.659-3.063,14.293,3.33,20.794-13.67-3.913-5.952L89.661,164.5l-.93,4.5L78.147,166.81l-1.919,1.262L75.522,167l2.361-1.552,9.848,2.036.41-1.983h0L89,161.352Z" transform="translate(-20.565 -89.968)" fill="#0f145b"/>
    <rect id="Rectangle_26" data-name="Rectangle 26" width="8.879" height="21.267" transform="translate(30.099 75.086) rotate(-33.321)" fill="#f04e36"/>
    <circle id="Ellipse_4" data-name="Ellipse 4" cx="15.285" cy="15.285" r="15.285" transform="translate(46.25 32.857)" fill="#f04e36"/>
    <path id="Path_45" data-name="Path 45" d="M135.8,66.934c0-3.006-2.394-3.81-4.553-4.413V59.478a1.89,1.89,0,0,1,.4,1.02h3.939c-.178-2.51-1.792-3.982-4.337-4.39v-1.83h-2.723V56.09c-2.607.372-4.542,1.919-4.542,4.407,0,3.07,2.379,3.884,4.542,4.459v3.213a1.883,1.883,0,0,1-.6-1.3H124c.1,2.568,1.931,4.065,4.52,4.481V73.2h2.723V71.391C134.2,71.009,135.8,69.093,135.8,66.934Zm-7.921-6.608a1.313,1.313,0,0,1,.646-1.217v2.4A1.41,1.41,0,0,1,127.878,60.326Zm3.369,8V65.883a1.352,1.352,0,0,1,.7,1.18A1.441,1.441,0,0,1,131.247,68.327Z" transform="translate(-68.356 -15.596)" fill="#f8fafb"/>
  </g>
</svg>
