<svg xmlns="http://www.w3.org/2000/svg" width="59.373" height="52.384" viewBox="0 0 59.373 52.384">
  <g id="icon_ownershiip" transform="translate(-58.344 -86.866)">
    <path id="Path_22" data-name="Path 22" d="M98.282,187.707l-11.693,7.687L94.944,208.1l5.012-3.295,15.375,3.582,22.37-14.706-4.209-6.4-13.212,8.686-1,4.84-11.386-2.353-2.065,1.357-.759-1.155,2.54-1.67,10.594,2.19.441-2.133h0l.921-4.461Z" transform="translate(-19.984 -76.433)" fill="#0f145b"/>
    <rect id="Rectangle_26" data-name="Rectangle 26" width="9.551" height="22.878" transform="translate(58.344 120.133) rotate(-33.321)" fill="#f04e36"/>
    <path id="Path_48" data-name="Path 48" d="M185.506,89.326A10.077,10.077,0,1,0,171,98.381v17.881l4.424,3.488,4.231-3.488-2.568-2.567,2.568-2.1-2.568-2.568,2.568-2.1V98.472A10.076,10.076,0,0,0,185.506,89.326Zm-9.85-6.879a1.647,1.647,0,1,1-1.647,1.647A1.647,1.647,0,0,1,175.656,82.447Z" transform="translate(188.368 -78.487) rotate(90)" fill="#f04e36"/>
  </g>
</svg>
