<svg xmlns="http://www.w3.org/2000/svg" width="280" height="41.898" viewBox="0 0 280 41.898">
  <g id="Group_84" data-name="Group 84" transform="translate(-247.919 -540)">
    <path id="Path_26" data-name="Path 26" d="M247.919,560.949,268.868,540v20.949L247.919,581.9Z" transform="translate(0 0)" fill="#f04e36"/>
    <path id="Path_27" data-name="Path 27" d="M291.624,560.949,312.573,540v20.949L291.624,581.9Z" transform="translate(-22.757 0)" fill="#f04e36"/>
    <path id="Path_28" data-name="Path 28" d="M335.33,560.949,356.279,540v20.949L335.33,581.9Z" transform="translate(-45.513 0)" fill="#f04e36"/>
    <path id="Path_29" data-name="Path 29" d="M247.919,550.277l0-10.274,10.274,0Z" transform="translate(0 0)" fill="#f04e36"/>
    <g id="Group_83" data-name="Group 83" transform="translate(326.479 550.251)">
      <path id="Path_30" data-name="Path 30" d="M739.2,561.387v4.875l-4.9-4.875h4.9Z" transform="translate(-579.729 -561.387)" fill="#f04e36"/>
      <path id="Path_31" data-name="Path 31" d="M432.155,563.609a6.527,6.527,0,0,1,5.054,2.06,7.852,7.852,0,0,1,1.894,5.516v11.323h-4.745V571.513a3.77,3.77,0,0,0-.807-2.573,2.869,2.869,0,0,0-2.28-.918,3.112,3.112,0,0,0-2.519,1.065,4.642,4.642,0,0,0-.9,3.09v10.331h-4.741V571.513a3.762,3.762,0,0,0-.81-2.573,2.869,2.869,0,0,0-2.28-.918,3.187,3.187,0,0,0-2.519,1.065,4.546,4.546,0,0,0-.938,3.09v10.331h-4.744V564.122h4.744v1.948a5.729,5.729,0,0,1,5.1-2.462,5.447,5.447,0,0,1,5,2.646A6.267,6.267,0,0,1,432.155,563.609Z" transform="translate(-411.818 -562.544)" fill="#f04e36"/>
      <path id="Path_32" data-name="Path 32" d="M490.117,564.122h4.741v18.385h-4.741v-2.168a7.234,7.234,0,0,1-5.995,2.685,8.335,8.335,0,0,1-6.307-2.813,10.363,10.363,0,0,1,0-13.79,8.334,8.334,0,0,1,6.307-2.812,7.221,7.221,0,0,1,5.995,2.685Zm-8.753,12.926a4.892,4.892,0,0,0,3.641,1.451,4.953,4.953,0,0,0,3.657-1.451,5.516,5.516,0,0,0,0-7.464,4.957,4.957,0,0,0-3.657-1.444,4.9,4.9,0,0,0-3.641,1.454,5.571,5.571,0,0,0,0,7.464Z" transform="translate(-444.814 -562.544)" fill="#f04e36"/>
      <path id="Path_33" data-name="Path 33" d="M539.642,580.1a9.811,9.811,0,1,1,2.832-6.9A9.436,9.436,0,0,1,539.642,580.1Zm-10.462-3.255a4.782,4.782,0,0,0,3.549,1.435,4.844,4.844,0,0,0,3.568-1.435,5.344,5.344,0,0,0,0-7.279,4.845,4.845,0,0,0-3.568-1.435,4.782,4.782,0,0,0-3.549,1.435A5.386,5.386,0,0,0,529.181,576.844Z" transform="translate(-469.631 -562.432)" fill="#f04e36"/>
      <path id="Path_34" data-name="Path 34" d="M718.577,580.21a9.709,9.709,0,1,1,0-13.79A9.812,9.812,0,0,1,718.577,580.21Zm-10.462-3.255a4.783,4.783,0,0,0,3.549,1.435,4.842,4.842,0,0,0,3.568-1.435,5.344,5.344,0,0,0,0-7.28,4.842,4.842,0,0,0-3.568-1.435,4.783,4.783,0,0,0-3.549,1.435A5.386,5.386,0,0,0,708.115,576.954Z" transform="translate(-562.927 -562.543)" fill="#f04e36"/>
      <path id="Path_35" data-name="Path 35" d="M716.462,605.991a4.726,4.726,0,0,1-1.154,1.843,4.836,4.836,0,0,1-3.565,1.438,4.784,4.784,0,0,1-3.546-1.438,4.577,4.577,0,0,1-1.138-1.843h-4.875a9.226,9.226,0,0,0,2.662,5.1,9.884,9.884,0,0,0,13.813,0,9.277,9.277,0,0,0,2.685-5.1Z" transform="translate(-563.006 -584.612)" fill="#f04e36"/>
      <path id="Path_36" data-name="Path 36" d="M580.994,563.606a6.649,6.649,0,0,1,4.981,2.022,7.7,7.7,0,0,1,1.967,5.589V582.5h-4.757v-10.7a3.727,3.727,0,0,0-.992-2.816,3.626,3.626,0,0,0-2.646-.957,3.911,3.911,0,0,0-2.944,1.138,4.77,4.77,0,0,0-1.1,3.421v9.925h-4.732v-18.4h4.744v2.06A6.123,6.123,0,0,1,580.994,563.606Z" transform="translate(-494.58 -562.541)" fill="#f04e36"/>
      <path id="Path_37" data-name="Path 37" d="M618.008,575.263q.957,3.46,5.185,3.46a4.85,4.85,0,0,0,4.12-1.84l3.826,2.207a9.114,9.114,0,0,1-8.016,3.935,9.881,9.881,0,0,1-7.315-2.758,10.162,10.162,0,0,1-.038-13.88,9.323,9.323,0,0,1,6.986-2.777,8.766,8.766,0,0,1,6.674,2.793,9.719,9.719,0,0,1,2.631,6.913,11.218,11.218,0,0,1-.185,1.948Zm-.073-3.677h9.378a4.42,4.42,0,0,0-1.674-2.793,4.778,4.778,0,0,0-2.885-.918,5,5,0,0,0-3.163.973A4.67,4.67,0,0,0,617.935,571.587Z" transform="translate(-516.596 -562.544)" fill="#f04e36"/>
      <path id="Path_38" data-name="Path 38" d="M669.825,563.606a6.649,6.649,0,0,1,4.983,2.022,7.7,7.7,0,0,1,1.968,5.589V582.5h-4.745v-10.7a3.729,3.729,0,0,0-.992-2.816,3.627,3.627,0,0,0-2.647-.957,3.911,3.911,0,0,0-2.943,1.139,4.774,4.774,0,0,0-1.1,3.422v9.926H659.6v-18.4h4.745v2.06A6.124,6.124,0,0,1,669.825,563.606Z" transform="translate(-540.834 -562.541)" fill="#f04e36"/>
      <g id="Group_82" data-name="Group 82" transform="translate(169.92 1.531)">
        <path id="Path_39" data-name="Path 39" d="M773.489,564.582a6.5,6.5,0,0,1,4.691,1.819,6.617,6.617,0,0,1,0,9.277,6.5,6.5,0,0,1-4.691,1.818h-2.451v5.535h-4.717V564.582Zm0,8.433a1.872,1.872,0,0,0,1.871-1.976,1.85,1.85,0,0,0-1.871-1.95h-2.451v3.927Z" transform="translate(-766.321 -564.582)" fill="#f04e36"/>
        <path id="Path_40" data-name="Path 40" d="M811.53,564.582h4.691V583.03H811.53v-7.089h-5.191v7.089h-4.717V564.582h4.717v6.826h5.191Z" transform="translate(-784.701 -564.582)" fill="#f04e36"/>
      </g>
    </g>
  </g>
</svg>
